<?xml version="1.0" encoding="UTF-8" standalone="no"?>
<!-- Created with Inkscape (http://www.inkscape.org/) -->

<svg
   width="214.58601mm"
   height="216.50172mm"
   viewBox="0 0 214.58601 216.50172"
   version="1.1"
   id="svg1"
   inkscape:export-filename="bitmap.svg"
   inkscape:export-xdpi="96"
   inkscape:export-ydpi="96"
   xmlns:inkscape="http://www.inkscape.org/namespaces/inkscape"
   xmlns:sodipodi="http://sodipodi.sourceforge.net/DTD/sodipodi-0.dtd"
   xmlns="http://www.w3.org/2000/svg"
   xmlns:svg="http://www.w3.org/2000/svg">
  <sodipodi:namedview
     id="namedview1"
     pagecolor="#ffffff"
     bordercolor="#000000"
     borderopacity="0.25"
     inkscape:showpageshadow="2"
     inkscape:pageopacity="0.0"
     inkscape:pagecheckerboard="0"
     inkscape:deskcolor="#d1d1d1"
     inkscape:document-units="mm" />
  <defs
     id="defs1" />
  <g
     inkscape:label="Layer 1"
     inkscape:groupmode="layer"
     id="layer1"
     transform="translate(8.3879225,-15.983022)">
    <path
       style="fill:#000000;stroke-width:0.264583"
       d="m 34.019304,86.768338 c 111.613896,0.764479 112.378376,-52.749034 111.996136,0 -0.38224,52.749032 -0.38224,55.042472 -0.38224,55.042472 M 97.471042,93.648649 63.069498,143.72201"
       id="path1" />
    <path
       style="fill:#000000;stroke-width:0.264583"
       d="M 81.034749,207.55598 C 163.98069,197.61776 249.98455,275.21236 163.98069,197.61776 77.976832,120.02316 59.247103,171.62548 59.247103,171.62548 l 13.378378,2.29344"
       id="path2" />
    <path
       style="fill:#000000;stroke-width:0.264583"
       d="m 32.872587,51.984555 c 3.822015,0.06529 7.669972,-0.250629 11.467182,0.382241 2.317414,0.386236 4.570203,1.101158 6.880307,1.528955 1.134488,0.21009 2.308786,0.155967 3.440154,0.382241 0.790184,0.158036 1.505493,0.595633 2.293438,0.764479 2.886615,0.618559 5.884024,0.94746 8.791506,1.528956 0.909569,0.181914 1.760715,0.611987 2.675676,0.764479 1.185211,0.197535 9.027892,0.35252 10.320461,0 2.216037,-0.604372 4.302673,-1.61793 6.498069,-2.293435 5.051986,-1.554458 10.12449,-3.08179 15.28958,-4.204634 0.62252,-0.135331 1.27802,0.07035 1.91119,0 1.04425,-0.116027 2.02765,-0.558424 3.05792,-0.764479 0.47856,-0.09571 1.06983,0.153043 1.52896,0 1.18407,-0.394692 2.16888,-0.382238 3.44015,-0.382238"
       id="path3" />
    <path
       style="fill:#000000;stroke-width:0.264583"
       d="m 47.779921,16.054054 c 1.48677,0.253116 3.099242,-0.247939 4.586875,0 1.036378,0.17273 2.011553,0.669355 3.057914,0.764479 1.904558,0.173141 3.84479,0.06744 5.733589,0.382239 0.777722,-0.132759 1.238382,0.629916 1.911199,0.764479 1.36189,0.272378 3.310224,-0.51066 4.586872,0 0.426538,0.170615 0.710899,0.619205 1.146718,0.764479 0.911357,0.303785 2.109936,-0.189597 3.057914,0 1.812038,0.362407 0.538173,0.526978 2.675675,0.764478 3.738349,0 0.219652,-0.154511 3.440155,0.38224 1.735087,0.289181 3.604596,-0.218345 5.351352,0 0.521282,0.06516 1.007676,0.317079 1.528958,0.382239 4.136424,0.517053 8.457432,-0.346372 12.613899,0 2.674049,0.222838 5.353229,0.941041 8.027029,1.146718 2.40661,0.185124 4.85594,-0.185124 7.26255,0 3.92404,0.30185 7.99759,0.886987 11.84942,1.528958 1.66548,0.277581 3.65048,0 5.35135,0 0.42288,0 4.53868,0.259258 4.96911,0.382239 0.44172,0.126205 0.69826,0.664822 1.14672,0.764479 0.99503,0.221118 2.06904,-0.247218 3.05791,0 0.2764,0.0691 0.48808,0.31314 0.76448,0.382239 0.74166,0.185414 1.52896,0 2.29344,0 2.32378,0 4.57808,-0.07821 6.88031,0.382239 1.06197,-0.743536 0.97616,0.62628 1.52896,0.764479 0.60828,0.152072 2.29343,-0.463205 2.29343,0.38224 0.0202,5.615544 -0.25713,11.237757 -0.76448,16.818533 -0.13771,1.514861 0.16794,3.075442 0,4.586872 -0.29764,2.678837 -0.66215,5.264128 -0.76447,8.027027 -0.35741,9.650043 -0.035,19.421329 -0.76448,29.050193 -0.30085,3.971173 -0.92339,7.91318 -1.52896,11.849421 -0.40215,2.61395 -1.23571,5.387796 -1.52896,8.027026 -0.23685,2.13169 0.42009,4.39762 0,6.49807 -0.23959,1.19797 -0.65661,2.45993 -1.14672,3.44016 -0.36531,0.73062 0.0555,1.80013 -0.38224,2.67567 -0.16116,0.32233 -0.65051,0.42259 -0.76447,0.76448 -0.24027,0.7208 0,2.24256 0,3.05791"
       id="path4" />
    <path
       style="fill:#000000;stroke-width:0.264583"
       id="path5"
       d="m 26.559496,137.61701 c 4.839621,-0.0144 9.670915,0.47132 14.480299,0.97249 4.064471,0.54199 8.171569,0.75336 12.224965,1.37462 2.337689,0.3223 4.654153,0.77513 6.99004,1.10781 1.744088,0.37413 3.492079,0.72041 5.228413,1.12623 1.317812,0.34528 2.680491,0.33852 4.032059,0.3623 1.732672,0.0196 3.454154,0.226 5.185246,0.30041 2.847308,0.0628 5.695818,0.0573 8.543713,0.075 1.897991,-0.12913 3.86651,0.27438 5.736326,-0.15458 0.30322,-0.15462 0.540496,-0.21214 0.702434,-0.54745 0.60211,-1.24671 -1.581237,-3.25221 -2.237303,-3.97805 -0.732015,-0.6233 -1.434219,-1.2834 -2.196045,-1.86989 -2.165162,-1.66683 -5.261676,-3.69195 -7.509338,-5.11555 -4.198733,-2.65935 -8.495961,-5.16848 -12.769458,-7.70474 -5.618461,-3.12261 -11.094582,-6.67073 -17.200758,-8.79437 -1.424109,-0.39401 -2.794778,-0.88799 -4.074517,0.0771 -0.06671,0.10256 -0.133419,0.20511 -0.200131,0.30766 0,0 3.426648,1.99462 3.426648,1.99462 v 0 c 0.03506,-0.0601 0.07012,-0.12021 0.10519,-0.18033 1.152361,-0.73688 2.562762,-0.16693 3.766169,0.15656 3.83498,1.34238 7.400266,3.27777 10.967196,5.20251 3.005124,1.77361 5.321091,3.12921 8.326422,4.95127 4.00813,2.43002 8.051263,4.87214 11.7735,7.7338 0.729396,0.56076 1.404948,1.18827 2.10742,1.78241 0.325395,0.35231 2.640523,2.65992 2.334617,3.38538 -0.09055,0.21473 -0.373714,0.279 -0.552122,0.35221 -1.838812,0.34088 -3.745074,0.0393 -5.601547,0.15126 -2.860606,0.002 -5.722688,-5.3e-4 -8.581146,-0.12435 -1.732534,-0.0954 -3.46007,-0.28876 -5.196578,-0.29689 -1.345848,-0.0422 -2.694993,-0.0951 -4.004649,-0.4408 -1.727231,-0.39621 -3.471214,-0.71598 -5.207566,-1.06926 -2.326947,-0.33882 -4.637934,-0.77971 -6.969027,-1.09225 -3.999653,-0.54168 -8.042748,-0.71084 -12.046971,-1.22316 -4.91132,-0.50353 -9.832597,-0.99893 -14.769961,-1.13701 z" />
    <path
       style="fill:#000000;stroke-width:0.264583"
       id="path6"
       d="m 28.106872,170.82923 c -0.188108,-5.44142 -0.15518,-10.88527 0.257681,-16.31453 0.735367,-5.21553 2.423694,-10.30149 4.823759,-14.99064 0.453218,-0.88548 0.979569,-1.73159 1.469353,-2.59738 2.677795,-4.45972 5.937583,-8.51474 9.407112,-12.37479 1.868077,-2.06031 3.784912,-4.06697 5.871802,-5.90601 0.611698,-0.57147 1.276623,-1.07997 1.922296,-1.61135 0,0 -3.322788,-2.07413 -3.322788,-2.07413 v 0 c -0.629714,0.54942 -1.280636,1.07328 -1.895713,1.63952 -2.068722,1.86604 -3.920943,3.94018 -5.772907,6.01871 -3.43467,3.91822 -6.682258,8.01092 -9.359148,12.49399 -0.492647,0.87596 -1.024157,1.73117 -1.477942,2.62789 -0.462348,0.91364 -0.866658,1.85595 -1.267865,2.79804 -1.680487,3.94604 -3.069923,8.02873 -3.631272,12.29815 -0.398223,5.40358 -0.387751,10.81264 -0.489079,16.22717 z" />
    <path
       sodipodi:type="spiral"
       style="fill:none;fill-rule:evenodd;stroke:#000000;stroke-width:0.264583"
       id="path7"
       sodipodi:cx="10.702703"
       sodipodi:cy="63.833973"
       sodipodi:expansion="1"
       sodipodi:revolution="3"
       sodipodi:radius="21.649736"
       sodipodi:argument="-19.684912"
       sodipodi:t0="0"
       d="m 10.702703,63.833973 c 0.728266,-0.804924 1.444323,0.584567 1.337837,1.210426 C 11.751971,66.740438 9.6168908,67.11752 8.281852,66.509647 5.8937809,65.422304 5.46478,62.310099 6.6891927,60.202696 8.4860676,57.109997 12.688206,56.621077 15.544406,58.482625 19.351272,60.963777 19.899261,66.2894 17.391888,69.886102 14.236615,74.412183 7.7734141,75.018668 3.4401491,71.860995 -1.8080153,68.036629 -2.4727187,60.428607 1.3378449,55.360993 5.8284623,49.388985 14.585526,48.666199 20.386109,53.131277 c 6.697003,5.15511 7.477804,15.063897 2.357127,21.596527 C 16.924797,82.150595 5.8624775,82.989377 -1.4015538,77.212342 -9.5506991,70.731383 -10.447445,58.51425 -4.0135028,50.51929 3.1293929,41.643369 16.50228,40.688667 25.227812,47.77993" />
    <path
       sodipodi:type="spiral"
       style="fill:none;fill-rule:evenodd;stroke:#000000;stroke-width:0.264583"
       id="path8"
       sodipodi:cx="169.71428"
       sodipodi:cy="44.339767"
       sodipodi:expansion="1"
       sodipodi:revolution="3"
       sodipodi:radius="27.163212"
       sodipodi:argument="-17.964489"
       sodipodi:t0="0"
       d="m 169.71428,44.339767 c 0.86242,1.054069 -0.99538,1.682564 -1.75193,1.433398 -2.05022,-0.675226 -2.11872,-3.394637 -1.11487,-4.937259 1.79566,-2.759389 5.73705,-2.709548 8.12259,-0.796331 3.50088,2.807723 3.32153,8.112543 0.4778,11.307915 -3.79024,4.258929 -10.49996,3.94273 -14.49324,0.159265 -5.02514,-4.761105 -4.56876,-12.893098 0.15926,-17.678572 5.72627,-5.795849 15.28947,-5.197572 20.8639,0.477802 6.56928,6.688232 5.82815,17.687854 -0.79633,24.049228 -7.64823,7.344457 -20.08759,6.459901 -27.23456,-1.114868 -8.12084,-8.606935 -7.09247,-22.488263 1.4334,-30.419884 9.56475,-8.898081 24.88963,-7.725637 33.60522,1.751934 9.67595,10.521901 8.35924,27.291512 -2.07047,36.790541" />
    <path
       sodipodi:type="spiral"
       style="fill:none;fill-rule:evenodd;stroke:#000000;stroke-width:0.264583"
       id="path9"
       sodipodi:cx="175.44788"
       sodipodi:cy="105.49806"
       sodipodi:expansion="1"
       sodipodi:revolution="3"
       sodipodi:radius="32.759052"
       sodipodi:argument="-17.61158"
       sodipodi:t0="0"
       d="m 175.44788,105.49806 c 0.53661,1.55236 -1.8278,1.48923 -2.58012,0.89189 -2.03874,-1.61873 -0.98272,-4.7248 0.79633,-6.05212 3.18231,-2.374268 7.62194,-0.674969 9.52413,2.48456 2.79154,4.63673 0.37735,10.56534 -4.17278,12.99614 -6.0646,3.23986 -13.52608,0.0852 -16.46814,-5.86101 -3.70229,-7.4827 0.20387,-16.4953 7.54922,-19.940152 8.89622,-4.172179 19.46935,0.491125 23.41217,9.237449 4.64647,10.307243 -0.77724,22.446403 -10.92568,26.884173 -11.71677,5.12357 -25.42547,-1.06258 -30.35618,-12.6139 -5.60257,-13.12534 1.34739,-28.405954 14.30212,-33.828185 14.53326,-6.082924 31.38747,1.631806 37.3002,15.990344 6.56425,15.940701 -1.91594,34.369741 -17.67857,40.772201" />
  </g>
</svg>
